<svg width="32" height="32" viewBox="0 0 32 32" fill="none" xmlns="http://www.w3.org/2000/svg">
<path d="M16 3.00001C13.2133 3.00066 10.5005 3.89681 8.26171 5.55629C6.02294 7.21578 4.37668 9.55075 3.56571 12.2169C2.75475 14.883 2.82199 17.7392 3.75753 20.3642C4.69307 22.9893 6.44739 25.2442 8.76178 26.7965C11.0762 28.3487 13.8281 29.1162 16.6118 28.9857C19.3955 28.8553 22.0636 27.8337 24.2226 26.0717C26.3816 24.3097 27.9173 21.9006 28.6032 19.1996C29.2891 16.4985 29.0888 13.6486 28.032 11.07C27.8808 10.7019 27.8821 10.2888 28.0355 9.92159C28.1889 9.5544 28.4819 9.26318 28.85 9.11201C29.2181 8.96083 29.6312 8.96208 29.9984 9.11549C30.3656 9.2689 30.6568 9.56188 30.808 9.93001C32.2093 13.3505 32.3831 17.1506 31.2998 20.6847C30.2166 24.2187 27.9431 27.2687 24.8657 29.3164C21.7883 31.364 18.0969 32.283 14.4187 31.9171C10.7404 31.5512 7.30236 29.9231 4.68864 27.3094C2.07491 24.6957 0.446781 21.2576 0.080914 17.5794C-0.284953 13.9011 0.634011 10.2097 2.68165 7.13231C4.72929 4.05493 7.77928 1.78144 11.3134 0.698174C14.8474 -0.38509 18.6476 -0.211303 22.068 1.19001C22.2504 1.26473 22.4163 1.37465 22.5562 1.51348C22.6962 1.65232 22.8074 1.81736 22.8835 1.99918C22.9597 2.18099 22.9993 2.37603 23 2.57315C23.0008 2.77026 22.9627 2.9656 22.888 3.14801C22.8133 3.33041 22.7034 3.49631 22.5645 3.63624C22.4257 3.77617 22.2607 3.88738 22.0788 3.96352C21.897 4.03966 21.702 4.07925 21.5049 4.08002C21.3078 4.08079 21.1124 4.04273 20.93 3.96801C19.3657 3.3265 17.6908 2.99764 16 3.00001ZM28.56 3.44001C28.8409 3.72126 28.9987 4.1025 28.9987 4.50001C28.9987 4.89751 28.8409 5.27875 28.56 5.56001L20.434 13.688C20.9866 14.7472 21.1418 15.9692 20.8713 17.1329C20.6008 18.2965 19.9227 19.3249 18.9596 20.0317C17.9964 20.7386 16.8121 21.0773 15.6209 20.9864C14.4297 20.8956 13.3103 20.3812 12.4656 19.5364C11.6208 18.6917 11.1065 17.5724 11.0156 16.3812C10.9247 15.1899 11.2634 14.0056 11.9703 13.0425C12.6771 12.0794 13.7055 11.4012 14.8692 11.1307C16.0328 10.8603 17.2548 11.0154 18.314 11.568L26.44 3.44001C26.7213 3.1591 27.1025 3.00133 27.5 3.00133C27.8975 3.00133 28.2788 3.1591 28.56 3.44001ZM14 16C14 16.5304 14.2107 17.0391 14.5858 17.4142C14.9609 17.7893 15.4696 18 16 18C16.5304 18 17.0392 17.7893 17.4142 17.4142C17.7893 17.0391 18 16.5304 18 16C18 15.4696 17.7893 14.9609 17.4142 14.5858C17.0392 14.2107 16.5304 14 16 14C15.4696 14 14.9609 14.2107 14.5858 14.5858C14.2107 14.9609 14 15.4696 14 16Z" fill="black"/>
</svg>
