<svg width="18" height="18" viewBox="0 0 18 18" fill="none" xmlns="http://www.w3.org/2000/svg">
<path d="M9.00004 0.333374C10.1493 0.333374 11.2515 0.78992 12.0642 1.60258C12.8768 2.41524 13.3334 3.51744 13.3334 4.66671C13.3334 5.81598 12.8768 6.91818 12.0642 7.73084C11.2515 8.5435 10.1493 9.00004 9.00004 9.00004C7.85077 9.00004 6.74857 8.5435 5.93591 7.73084C5.12325 6.91818 4.66671 5.81598 4.66671 4.66671C4.66671 3.51744 5.12325 2.41524 5.93591 1.60258C6.74857 0.78992 7.85077 0.333374 9.00004 0.333374ZM9.00004 11.1667C13.7884 11.1667 17.6667 13.1059 17.6667 15.5V17.6667H0.333374V15.5C0.333374 13.1059 4.21171 11.1667 9.00004 11.1667Z" fill="black"/>
</svg>
