<svg width="20" height="22" viewBox="0 0 20 22" fill="none" xmlns="http://www.w3.org/2000/svg">
<path d="M17.1875 9.625H16.1563V6.53125C16.1563 2.93047 13.2258 0 9.625 0C6.02422 0 3.09375 2.93047 3.09375 6.53125V9.625H2.0625C0.923828 9.625 0 10.5488 0 11.6875V19.9375C0 21.0762 0.923828 22 2.0625 22H17.1875C18.3262 22 19.25 21.0762 19.25 19.9375V11.6875C19.25 10.5488 18.3262 9.625 17.1875 9.625ZM12.7188 9.625H6.53125V6.53125C6.53125 4.82539 7.91914 3.4375 9.625 3.4375C11.3309 3.4375 12.7188 4.82539 12.7188 6.53125V9.625Z" fill="#707070"/>
</svg>
