<svg width="18" height="18" viewBox="0 0 18 18" fill="none" xmlns="http://www.w3.org/2000/svg">
<path d="M8.99992 0.333328C10.1492 0.333328 11.2514 0.789874 12.064 1.60253C12.8767 2.41519 13.3333 3.51739 13.3333 4.66666C13.3333 5.81593 12.8767 6.91813 12.064 7.73079C11.2514 8.54345 10.1492 9 8.99992 9C7.85065 9 6.74845 8.54345 5.93579 7.73079C5.12313 6.91813 4.66659 5.81593 4.66659 4.66666C4.66659 3.51739 5.12313 2.41519 5.93579 1.60253C6.74845 0.789874 7.85065 0.333328 8.99992 0.333328ZM8.99992 11.1667C13.7883 11.1667 17.6666 13.1058 17.6666 15.5V17.6667H0.333252V15.5C0.333252 13.1058 4.21159 11.1667 8.99992 11.1667Z" fill="#707070"/>
</svg>
