<svg width="30" height="20" viewBox="0 0 30 20" fill="none" xmlns="http://www.w3.org/2000/svg">
<path d="M0 18.2286V1.77143C0 1.75238 0.0285714 1.57143 0.0857143 1.22857L9.77143 9.51429L0.114286 18.8C0.0380952 18.5333 0 18.3429 0 18.2286ZM1.28571 0.0857142C1.41905 0.0285714 1.58095 0 1.77143 0H27.8571C28.0286 0 28.2 0.0285714 28.3714 0.0857142L18.6571 8.4L17.3714 9.42857L14.8286 11.5143L12.2857 9.42857L11 8.4L1.28571 0.0857142ZM1.31429 19.9143L11.0571 10.5714L14.8286 13.6286L18.6 10.5714L28.3429 19.9143C28.1905 19.9714 28.0286 20 27.8571 20H1.77143C1.61905 20 1.46667 19.9714 1.31429 19.9143ZM19.8857 9.51429L29.5429 1.22857C29.6 1.4 29.6286 1.58095 29.6286 1.77143V18.2286C29.6286 18.4 29.6 18.5905 29.5429 18.8L19.8857 9.51429Z" fill="#707070"/>
</svg>
