<svg width="60" height="57" viewBox="0 0 60 57" fill="none" xmlns="http://www.w3.org/2000/svg">
<path d="M12.5 12.3333C12.5 5.8875 17.7209 0.666668 24.1667 0.666668C30.6125 0.666668 35.8334 5.8875 35.8334 12.3333C35.8334 18.7792 30.6125 24 24.1667 24C17.7209 24 12.5 18.7792 12.5 12.3333ZM30 42.0833C30 39.2833 31.4584 36.6583 33.5 34.9083V31.2917C33.5 31.1458 33.5584 30.9708 33.5584 30.825C30.6709 30.1833 27.5209 29.8333 24.1667 29.8333C11.275 29.8333 0.833374 35.0542 0.833374 41.5V47.3333H30V42.0833ZM59.1667 42.375V52.5833C59.1667 54.3333 57.4167 56.0833 55.375 56.0833H39.3334C37.5834 56.0833 35.8334 54.3333 35.8334 52.2917V42.0833C35.8334 40.3333 37.5834 38.5833 39.3334 38.5833V31.2917C39.3334 27.2083 43.4167 24 47.5 24C51.5834 24 55.6667 27.2083 55.6667 31.2917V32.75H51.875V31.2917C51.875 28.9583 49.8334 27.5 47.5 27.5C45.1667 27.5 43.125 28.9583 43.125 31.2917V38.5833H55.6667C57.4167 38.5833 59.1667 40.3333 59.1667 42.375Z" fill="black"/>
</svg>
