<svg width="66" height="48" viewBox="0 0 66 48" fill="none" xmlns="http://www.w3.org/2000/svg">
<path d="M41.7501 29.8333C33.9626 29.8333 18.4167 33.7125 18.4167 41.5V47.3333H65.0834V41.5C65.0834 33.7125 49.5376 29.8333 41.7501 29.8333ZM15.5001 18.1667V9.41667H9.66675V18.1667H0.916748V24H9.66675V32.75H15.5001V24H24.2501V18.1667M41.7501 24C44.8443 24 47.8117 22.7708 49.9997 20.5829C52.1876 18.395 53.4167 15.4275 53.4167 12.3333C53.4167 9.23914 52.1876 6.27168 49.9997 4.08375C47.8117 1.89583 44.8443 0.666667 41.7501 0.666667C38.6559 0.666667 35.6884 1.89583 33.5005 4.08375C31.3126 6.27168 30.0834 9.23914 30.0834 12.3333C30.0834 15.4275 31.3126 18.395 33.5005 20.5829C35.6884 22.7708 38.6559 24 41.7501 24Z" fill="black"/>
</svg>
